<svg width="24" height="24" viewBox="0 0 24 24" fill="none" xmlns="http://www.w3.org/2000/svg">
<g clip-path="url(#clip0_1_113)">
<path d="M5.06999 15.0151C5.06841 15.6717 4.80679 16.301 4.34239 16.7652C3.87799 17.2294 3.24862 17.4908 2.59199 17.4921C1.93554 17.4905 1.30642 17.229 0.842237 16.7648C0.378052 16.3007 0.116575 15.6715 0.11499 15.0151C0.116575 14.3586 0.378052 13.7295 0.842237 13.2653C1.30642 12.8011 1.93554 12.5397 2.59199 12.5381H5.06999V15.0151ZM6.31699 15.0151C6.31857 14.3586 6.58005 13.7295 7.04424 13.2653C7.50842 12.8011 8.13754 12.5397 8.79399 12.5381C9.45044 12.5397 10.0796 12.8011 10.5437 13.2653C11.0079 13.7295 11.2694 14.3586 11.271 15.0151V21.2171C11.2694 21.8735 11.0079 22.5027 10.5437 22.9668C10.0796 23.431 9.45044 23.6925 8.79399 23.6941C8.13754 23.6925 7.50842 23.431 7.04424 22.9668C6.58005 22.5027 6.31857 21.8735 6.31699 21.2171V15.0151Z" fill="#023A15"/>
<path d="M8.79399 5.07023C8.13736 5.06865 7.5081 4.80703 7.04389 4.34263C6.57967 3.87823 6.31831 3.24886 6.31699 2.59223C6.31857 1.93578 6.58005 1.30667 7.04424 0.842481C7.50842 0.378296 8.13754 0.116819 8.79399 0.115234C9.45044 0.116819 10.0796 0.378296 10.5437 0.842481C11.0079 1.30667 11.2694 1.93578 11.271 2.59223V5.07023H8.79399ZM8.79399 6.31723C9.45044 6.31882 10.0796 6.5803 10.5437 7.04448C11.0079 7.50867 11.2694 8.13778 11.271 8.79423C11.2694 9.45069 11.0079 10.0798 10.5437 10.544C10.0796 11.0082 9.45044 11.2697 8.79399 11.2712H2.59199C1.93554 11.2697 1.30642 11.0082 0.842237 10.544C0.378052 10.0798 0.116575 9.45069 0.11499 8.79423C0.116575 8.13778 0.378052 7.50867 0.842237 7.04448C1.30642 6.5803 1.93554 6.31882 2.59199 6.31723H8.79399Z" fill="#023A15"/>
<path d="M18.74 8.79423C18.7415 8.13778 19.003 7.50867 19.4672 7.04448C19.9314 6.5803 20.5605 6.31882 21.217 6.31723C21.8734 6.31882 22.5025 6.5803 22.9667 7.04448C23.4309 7.50867 23.6924 8.13778 23.694 8.79423C23.6924 9.45069 23.4309 10.0798 22.9667 10.544C22.5025 11.0082 21.8734 11.2697 21.217 11.2712H18.74V8.79423ZM17.492 8.79423C17.4904 9.45069 17.2289 10.0798 16.7647 10.544C16.3005 11.0082 15.6714 11.2697 15.015 11.2712C14.3585 11.2697 13.7294 11.0082 13.2652 10.544C12.801 10.0798 12.5395 9.45069 12.538 8.79423V2.59223C12.5395 1.93578 12.801 1.30667 13.2652 0.842481C13.7294 0.378296 14.3585 0.116819 15.015 0.115234C15.6714 0.116819 16.3005 0.378296 16.7647 0.842481C17.2289 1.30667 17.4904 1.93578 17.492 2.59223V8.79423Z" fill="#023A15"/>
<path d="M15.015 18.7401C15.6714 18.7417 16.3005 19.0031 16.7647 19.4673C17.2289 19.9315 17.4904 20.5606 17.492 21.2171C17.4904 21.8735 17.2289 22.5027 16.7647 22.9668C16.3005 23.431 15.6714 23.6925 15.015 23.6941C14.3585 23.6925 13.7294 23.431 13.2652 22.9668C12.801 22.5027 12.5395 21.8735 12.538 21.2171V18.7401H15.015ZM15.015 17.4921C14.3585 17.4905 13.7294 17.229 13.2652 16.7648C12.801 16.3007 12.5395 15.6715 12.538 15.0151C12.5395 14.3586 12.801 13.7295 13.2652 13.2653C13.7294 12.8011 14.3585 12.5397 15.015 12.5381H21.217C21.8734 12.5397 22.5025 12.8011 22.9667 13.2653C23.4309 13.7295 23.6924 14.3586 23.694 15.0151C23.6924 15.6715 23.4309 16.3007 22.9667 16.7648C22.5025 17.229 21.8734 17.4905 21.217 17.4921H15.015Z" fill="#023A15"/>
</g>
<defs>
<clipPath id="clip0_1_113">
<rect width="24" height="24" fill="white"/>
</clipPath>
</defs>
</svg>
