<svg width="135" height="34" viewBox="0 0 135 34" fill="none" xmlns="http://www.w3.org/2000/svg">
<path d="M15.583 34C18.379 34 20.967 33.333 23.347 32C25.727 30.667 27.625 28.724 29.042 26.171C30.458 23.619 31.167 20.571 31.167 17.029C31.167 13.486 30.458 10.429 29.042 7.857C27.625 5.286 25.727 3.333 23.347 2C20.967 0.667 18.379 0 15.583 0C12.788 0 10.2 0.667 7.82 2C5.44 3.333 3.542 5.286 2.125 7.857C0.708 10.43 0 13.486 0 17.03C0 20.572 0.708 23.62 2.125 26.172C3.542 28.724 5.44 30.667 7.82 32C10.2 33.333 12.788 34 15.583 34Z" fill="#F09C96"/>
<path fill-rule="evenodd" clip-rule="evenodd" d="M16.432 8.153C15.4071 7.93682 14.3642 7.81697 13.317 7.795C11.132 7.752 9.165 8.172 7.678 8.955C7.31526 9.14463 7.01905 9.44048 6.829 9.803C6.049 11.29 5.627 13.257 5.669 15.442C5.69152 16.4896 5.81171 17.5328 6.028 18.558C7.205 24.184 10.398 27.67 13.777 26.963C16.171 26.462 18.259 24.237 18.567 20.693C22.111 20.385 24.335 18.296 24.837 15.903C25.544 12.523 22.057 9.331 16.432 8.154V8.153Z" stroke="#023A15" stroke-width="1.417"/>
<path d="M7.254 9.379L22.751 24.876" stroke="#023A15" stroke-width="1.417" stroke-linecap="round" stroke-linejoin="round"/>
<path d="M19.4959 9.40682L17.3957 19.5204L7.28139 21.6206" stroke="#023A15" stroke-width="1.417" stroke-linecap="round" stroke-linejoin="round"/>
<path d="M14.5208 7.8635L13.1346 15.2599L5.90814 16.4761" stroke="#023A15" stroke-width="1.417" stroke-linecap="round" stroke-linejoin="round"/>
<path d="M45.819 29.945C47.399 29.945 48.671 29.7 49.637 29.209C50.603 28.719 51.289 28.116 51.696 27.404C52.102 26.691 52.305 25.966 52.305 25.23C52.305 24.249 52.01 23.497 51.419 22.976C50.829 22.455 50.02 22.148 48.993 22.056L43.91 21.665C43.527 21.635 43.232 21.546 43.025 21.401C42.818 21.255 42.714 21.044 42.714 20.768C42.714 20.431 42.906 20.185 43.289 20.032C44.086 20.385 45.037 20.561 46.141 20.561C47.751 20.561 49.039 20.201 50.005 19.48C50.971 18.76 51.454 17.786 51.454 16.559C51.454 15.915 51.308 15.332 51.017 14.811C50.7117 14.275 50.2767 13.8243 49.752 13.5H52.144V12.925H48.533C47.813 12.695 47.015 12.58 46.141 12.58C45.098 12.58 44.178 12.745 43.381 13.075C42.584 13.405 41.967 13.868 41.529 14.466C41.092 15.064 40.874 15.762 40.874 16.559C40.874 17.264 41.043 17.893 41.38 18.445C41.717 18.997 42.193 19.449 42.806 19.802C42.239 19.986 41.756 20.366 41.357 20.941C40.9672 21.4881 40.7582 22.1433 40.759 22.815C40.759 23.919 41.158 24.739 41.955 25.276C41.434 25.429 41.015 25.698 40.702 26.081C40.387 26.464 40.23 26.871 40.23 27.3C40.23 28.174 40.667 28.833 41.541 29.278C42.415 29.723 43.841 29.945 45.819 29.945ZM46.164 20.032C45.781 20.032 45.501 19.767 45.324 19.238C45.148 18.709 45.06 17.87 45.06 16.72C45.06 15.463 45.148 14.543 45.324 13.96C45.501 13.377 45.781 13.086 46.164 13.086C46.547 13.086 46.827 13.377 47.004 13.96C47.18 14.543 47.268 15.463 47.268 16.72C47.268 17.87 47.18 18.71 47.004 19.238C46.827 19.768 46.547 20.032 46.164 20.032ZM46.946 29.002C45.566 29.002 44.485 28.742 43.703 28.22C42.921 27.699 42.53 27.009 42.53 26.15C42.53 25.95 42.553 25.759 42.599 25.575C42.906 25.682 43.205 25.744 43.496 25.759L48.602 26.242C49.277 26.303 49.729 26.414 49.959 26.576C50.0676 26.6467 50.1563 26.744 50.2166 26.8587C50.277 26.9733 50.3071 27.1015 50.304 27.231C50.304 27.783 50.005 28.216 49.407 28.531C48.809 28.845 47.989 29.002 46.946 29.002ZM60.041 25V24.885C59.55 24.778 59.163 24.594 58.879 24.333C58.596 24.073 58.454 23.681 58.454 23.16V20.124C58.454 18.729 58.661 17.77 59.074 17.249C59.489 16.728 60.102 16.467 60.914 16.467C61.528 16.467 61.98 16.559 62.272 16.743H62.387V12.58H62.042C60.984 12.58 60.132 13.032 59.489 13.937C58.845 14.842 58.484 16.275 58.408 18.238H58.27V12.58L52.957 14.167V14.282C53.355 14.405 53.643 14.635 53.819 14.972C53.995 15.309 54.084 15.785 54.084 16.398V23.16C54.084 23.988 53.708 24.563 52.957 24.885V25H60.041ZM68.397 25.345C69.486 25.345 70.498 24.981 71.433 24.253C72.369 23.524 72.974 22.355 73.25 20.745L73.066 20.699C72.76 21.129 72.392 21.439 71.962 21.63C71.533 21.822 71.027 21.918 70.444 21.918C69.402 21.918 68.554 21.584 67.903 20.918C67.251 20.25 66.841 19.273 66.673 17.985H73.296C73.296 16.635 73.051 15.559 72.56 14.754C72.07 13.948 71.472 13.385 70.766 13.063C70.0737 12.7438 69.3203 12.579 68.558 12.58C67.5683 12.5685 66.5997 12.866 65.787 13.431C64.967 13.998 64.322 14.784 63.855 15.789C63.387 16.793 63.153 17.931 63.153 19.204C63.153 20.492 63.399 21.6 63.889 22.527C64.38 23.455 65.028 24.157 65.833 24.632C66.638 25.107 67.493 25.345 68.397 25.345ZM69.455 17.272H66.603C66.5846 17.0578 66.5769 16.8429 66.58 16.628C66.58 15.585 66.707 14.777 66.96 14.201C67.213 13.626 67.577 13.339 68.052 13.339C68.528 13.339 68.88 13.63 69.11 14.213C69.34 14.796 69.455 15.815 69.455 17.272ZM79.767 25.345C80.856 25.345 81.867 24.981 82.803 24.253C83.738 23.524 84.344 22.355 84.62 20.745L84.436 20.699C84.129 21.129 83.761 21.439 83.332 21.63C82.902 21.822 82.397 21.918 81.814 21.918C80.771 21.918 79.924 21.584 79.273 20.918C78.621 20.25 78.211 19.273 78.042 17.985H84.666C84.666 16.635 84.421 15.559 83.93 14.754C83.44 13.948 82.841 13.385 82.136 13.063C81.4437 12.7438 80.6903 12.579 79.928 12.58C78.938 12.5683 77.9689 12.8658 77.156 13.431C76.336 13.998 75.692 14.784 75.225 15.789C74.757 16.793 74.523 17.931 74.523 19.204C74.523 20.492 74.768 21.6 75.259 22.527C75.749 23.455 76.397 24.157 77.203 24.632C78.007 25.107 78.863 25.345 79.767 25.345ZM80.825 17.272H77.973C77.9546 17.0578 77.9469 16.8429 77.95 16.628C77.95 15.585 78.076 14.777 78.33 14.201C78.582 13.626 78.947 13.339 79.422 13.339C79.897 13.339 80.25 13.63 80.48 14.213C80.71 14.796 80.825 15.815 80.825 17.272ZM91.942 25V24.885C91.8257 24.8372 91.72 24.7668 91.6311 24.6779C91.5422 24.589 91.4718 24.4833 91.424 24.367C91.324 24.13 91.274 23.804 91.274 23.39V15.087C91.3985 14.904 91.5671 14.7554 91.7643 14.6549C91.9615 14.5544 92.1808 14.5053 92.402 14.512C92.739 14.512 93 14.631 93.184 14.868C93.368 15.106 93.46 15.455 93.46 15.915V23.39C93.46 23.804 93.41 24.13 93.31 24.367C93.2623 24.4832 93.1921 24.5888 93.1033 24.6777C93.0146 24.7666 92.9091 24.8371 92.793 24.885V25H98.957V24.885C98.205 24.563 97.83 23.988 97.83 23.16V15.915C97.83 14.857 97.538 14.037 96.956 13.454C96.373 12.871 95.553 12.58 94.495 12.58C93.713 12.58 93.042 12.76 92.482 13.12C91.922 13.48 91.52 13.998 91.275 14.673V12.58L85.778 14.144V14.259C86.192 14.382 86.483 14.581 86.652 14.857C86.82 15.133 86.905 15.547 86.905 16.099V23.16C86.905 23.988 86.529 24.563 85.778 24.885V25H91.942ZM106.462 25V24.885C105.711 24.563 105.335 23.988 105.335 23.16V8.21L99.838 9.889V10.004C100.237 10.142 100.525 10.353 100.701 10.637C100.877 10.92 100.965 11.284 100.965 11.729V23.16C100.965 23.988 100.59 24.563 99.838 24.885V25H106.462ZM110.656 12.396C111.3 12.396 111.84 12.177 112.277 11.741C112.715 11.303 112.933 10.771 112.933 10.142C112.933 9.513 112.714 8.977 112.277 8.532C111.841 8.087 111.3 7.865 110.656 7.865C110.012 7.865 109.472 8.087 109.034 8.532C108.822 8.74226 108.654 8.9933 108.542 9.27C108.429 9.5467 108.374 9.84332 108.379 10.142C108.379 10.771 108.597 11.304 109.034 11.741C109.472 12.178 110.012 12.396 110.656 12.396ZM114.083 25V24.885C113.332 24.563 112.956 23.988 112.956 23.16V12.58L107.459 14.144V14.259C107.873 14.382 108.164 14.581 108.333 14.857C108.502 15.133 108.586 15.547 108.586 16.099V23.16C108.586 23.988 108.21 24.563 107.459 24.885V25H114.083ZM119.473 25.345C120.577 25.345 121.508 25.123 122.267 24.678C123.027 24.233 123.597 23.654 123.981 22.942C124.362 22.2394 124.56 21.4522 124.556 20.653C124.556 19.166 123.843 18.085 122.416 17.41L119.036 15.846C118.714 15.693 118.472 15.501 118.311 15.271C118.158 15.0644 118.074 14.815 118.07 14.558C118.07 14.251 118.192 13.998 118.438 13.799C118.683 13.599 119.066 13.5 119.588 13.5C120.278 13.5 120.948 13.726 121.6 14.178C122.252 14.631 122.785 15.424 123.199 16.559L123.337 16.582L124.763 13.914C124.159 13.4667 123.482 13.1282 122.762 12.914C122.031 12.6923 121.272 12.5797 120.508 12.58C119.358 12.58 118.396 12.795 117.621 13.224C116.847 13.654 116.276 14.194 115.908 14.845C115.54 15.497 115.356 16.16 115.356 16.835C115.356 18.399 116.107 19.534 117.61 20.239L121.175 21.895C121.711 22.125 121.98 22.508 121.98 23.045C121.98 23.398 121.85 23.7 121.589 23.953C121.328 24.206 120.906 24.333 120.324 24.333C119.465 24.333 118.664 23.977 117.92 23.263C117.177 22.55 116.659 21.673 116.368 20.63L116.23 20.607L114.85 23.712C115.485 24.2302 116.204 24.6348 116.977 24.908C117.777 25.1985 118.622 25.3464 119.473 25.345ZM129.923 25.345C131.042 25.345 131.962 25.015 132.683 24.356C133.399 23.7038 133.923 22.8689 134.2 21.941L133.993 21.872C133.871 22.1932 133.669 22.4781 133.407 22.7C133.138 22.93 132.797 23.045 132.383 23.045C131.985 23.045 131.678 22.899 131.463 22.608C131.249 22.317 131.141 21.918 131.141 21.412V13.546H133.257V12.971H131.141V8.946H131.118C130.612 9.391 129.631 10.203 128.174 11.384C126.733 12.549 125.89 13.239 125.644 13.454V13.569H126.771V22.033C126.771 23.03 127.036 23.831 127.565 24.436C128.094 25.042 128.88 25.345 129.922 25.345H129.923Z" fill="white"/>
</svg>
